<svg xmlns="http://www.w3.org/2000/svg" version="1.0" width="256" height="256" viewBox="0 0 1638.000000 1638.000000" preserveAspectRatio="xMidYMid meet">

<g transform="translate(0.000000,1638.000000) scale(0.100000,-0.100000)" fill="#000000" stroke="none">
<path d="M4160 11500 c-75 -9 -158 -27 -181 -40 -9 -4 -38 -11 -65 -15 -27 -3 -58 -10 -69 -15 -11 -4 -51 -18 -90 -30 -38 -12 -74 -26 -79 -31 -6 -5 -17 -9 -26 -9 -9 0 -45 -18 -79 -40 -34 -22 -95 -57 -134 -76 -75 -38 -272 -208 -287 -248 -15 -42 13 -60 108 -70 31 -3 73 -17 102 -33 27 -15 84 -48 127 -72 70 -40 194 -136 293 -225 74 -67 229 -255 260 -316 7 -14 38 -59 69 -100 31 -41 67 -97 80 -125 13 -27 44 -81 69 -118 24 -37 57 -95 73 -128 16 -32 46 -85 68 -117 43 -63 86 -136 100 -169 6 -12 33 -58 60 -102 28 -45 51 -84 51 -87 0 -4 27 -51 59 -104 33 -53 77 -130 98 -171 21 -41 59 -106 85 -145 25 -39 57 -91 70 -115 13 -24 40 -69 59 -99 19 -30 50 -84 69 -120 18 -36 50 -90 70 -120 20 -30 57 -95 81 -145 24 -49 46 -92 49 -95 8 -7 80 -126 80 -133 0 -7 68 -118 83 -136 8 -9 35 -54 59 -101 24 -47 64 -116 89 -155 24 -38 55 -92 68 -120 13 -27 45 -82 71 -120 26 -39 65 -104 85 -145 21 -41 48 -88 60 -105 13 -16 35 -55 51 -85 16 -30 49 -86 74 -125 51 -77 90 -149 90 -167 0 -6 16 -31 36 -55 46 -56 104 -140 104 -151 0 -26 208 -201 257 -216 78 -24 192 2 270 61 40 29 221 247 222 267 1 9 71 128 81 136 3 3 23 39 44 80 21 41 58 104 81 140 24 36 55 90 70 120 15 30 45 80 65 110 21 31 57 92 80 135 59 110 61 114 99 165 57 76 84 145 83 214 0 74 -15 113 -91 231 -32 49 -69 113 -81 140 -12 28 -46 86 -74 130 -28 44 -62 103 -76 130 -13 28 -38 73 -56 101 -18 28 -49 82 -70 120 -20 38 -60 105 -89 149 -29 44 -65 105 -80 135 -15 30 -40 73 -55 95 -15 22 -43 69 -62 105 -56 104 -80 144 -99 165 -10 11 -23 31 -28 45 -16 35 -104 195 -117 211 -6 8 -28 46 -49 84 -21 39 -58 103 -82 142 -24 40 -43 75 -43 78 0 9 -92 159 -110 180 -10 11 -40 63 -67 115 -27 52 -63 115 -80 140 -16 25 -45 74 -64 109 -18 35 -52 84 -75 110 -23 25 -53 69 -68 97 -15 28 -51 79 -81 112 -30 33 -55 65 -55 71 0 14 -243 256 -286 285 -18 11 -56 42 -86 68 -29 25 -74 57 -100 71 -26 14 -59 33 -75 43 -45 30 -147 77 -193 89 -14 3 -34 10 -45 15 -11 5 -42 18 -70 30 -27 12 -59 25 -70 31 -79 37 -517 61 -715 39z" fill="#04abf2"/>
<path d="M11340 11478 c-60 -7 -141 -29 -274 -74 -165 -56 -206 -74 -330 -149 -176 -105 -331 -230 -331 -265 0 -22 10 -28 90 -56 302 -105 549 -335 696 -648 36 -78 87 -258 121 -426 10 -52 13 -464 13 -2045 1 -2005 2 -2067 36 -2200 46 -179 133 -307 309 -457 77 -65 180 -122 330 -180 l85 -33 215 0 c246 0 242 0 445 88 138 60 141 61 233 154 94 95 198 227 232 293 29 56 48 143 66 295 14 126 15 338 11 2110 -4 1765 -6 1985 -21 2110 -47 388 -172 690 -402 965 -107 127 -393 340 -529 393 -87 34 -306 97 -407 117 -79 16 -133 20 -300 19 -111 -1 -241 -6 -288 -11z" fill="#04abf2"/>
<path d="M2830 10074 c-105 -63 -138 -115 -165 -257 -14 -74 -15 -306 -12 -2063 3 -1806 4 -1986 20 -2059 50 -239 56 -258 106 -335 122 -185 255 -302 469 -409 135 -68 245 -84 527 -78 192 4 203 6 280 34 109 41 254 114 317 161 125 92 274 284 315 405 27 79 56 207 72 315 7 46 11 300 11 710 0 800 -5 848 -106 1030 -20 37 -59 110 -87 162 -27 52 -87 158 -132 235 -195 329 -392 667 -448 765 -32 58 -121 209 -196 335 -76 127 -173 291 -216 365 -190 328 -321 520 -407 595 -25 22 -71 55 -102 74 -48 28 -69 35 -129 38 -64 4 -77 1 -117 -23z" fill="#04abf2"/>
<path d="M10055 10042 c-190 -105 -232 -156 -500 -610 -5 -10 -19 -31 -30 -47 -12 -17 -31 -52 -45 -80 -13 -27 -48 -90 -77 -138 -29 -48 -53 -90 -53 -92 0 -4 -70 -122 -117 -200 -7 -11 -18 -31 -25 -45 -6 -14 -17 -32 -24 -40 -7 -8 -21 -31 -32 -51 -41 -73 -47 -84 -59 -99 -6 -8 -27 -44 -46 -80 -44 -84 -77 -142 -89 -157 -5 -6 -21 -35 -37 -65 -42 -81 -72 -131 -87 -149 -8 -8 -14 -18 -14 -22 0 -3 -34 -63 -77 -134 -42 -70 -96 -166 -120 -212 -24 -46 -61 -109 -81 -140 -40 -61 -44 -68 -92 -156 -18 -33 -36 -64 -40 -70 -4 -5 -17 -27 -29 -47 -42 -75 -59 -105 -132 -228 -41 -69 -83 -141 -93 -160 -11 -19 -22 -37 -25 -40 -8 -7 -26 -37 -59 -100 -34 -64 -57 -105 -102 -180 -18 -30 -59 -103 -90 -161 -32 -59 -80 -139 -107 -179 -26 -39 -55 -82 -63 -94 -128 -193 -183 -261 -324 -402 -140 -140 -176 -168 -312 -249 -76 -45 -178 -85 -218 -85 -14 0 -28 -4 -31 -10 -3 -5 -18 -10 -33 -10 -32 -1 -62 -21 -62 -42 0 -18 119 -137 181 -181 25 -17 68 -51 96 -74 28 -24 54 -43 58 -43 4 0 24 -13 45 -30 21 -17 41 -30 45 -30 4 0 19 -8 33 -18 15 -11 61 -31 102 -47 41 -15 84 -31 95 -35 11 -5 49 -18 85 -30 36 -12 73 -26 83 -31 9 -5 39 -12 65 -16 26 -3 52 -9 57 -14 8 -6 280 -31 345 -31 56 -1 305 24 318 31 9 5 38 12 64 15 26 4 50 11 53 17 4 5 15 9 27 9 11 0 34 6 51 13 40 17 92 36 135 48 36 11 110 50 211 111 34 21 65 38 67 38 4 0 125 89 238 176 78 60 269 276 356 403 19 29 52 74 73 101 20 27 37 52 37 56 0 3 13 23 28 43 15 20 33 47 40 61 12 26 18 36 103 176 27 45 49 85 49 89 0 5 11 23 25 41 14 18 25 36 25 40 0 3 36 66 81 138 44 72 84 138 89 146 5 8 44 73 86 145 103 172 182 326 190 373 4 20 12 43 18 51 8 10 11 357 11 1265 0 1447 6 1352 -91 1483 -30 39 -68 79 -86 87 -40 20 -124 19 -163 -2z" fill="#04abf2"/>
</g>
</svg>