<svg xmlns="http://www.w3.org/2000/svg" version="1.0" width="160" height="auto" viewBox="0 0 3264.000000 876.000000" preserveAspectRatio="xMidYMid meet">

<g transform="translate(0.000000,876.000000) scale(0.100000,-0.100000)" fill="#ffffff" stroke="none">
<path d="M2090 8111 c-8 -4 -50 -11 -92 -15 -43 -3 -86 -10 -95 -15 -17 -10 -48 -17 -163 -42 -25 -5 -56 -13 -70 -18 -138 -51 -203 -80 -250 -111 -30 -19 -86 -51 -125 -70 -51 -25 -98 -62 -172 -134 -56 -54 -105 -108 -109 -118 -8 -28 14 -48 62 -54 79 -11 178 -46 204 -74 8 -8 49 -31 105 -59 28 -13 79 -49 115 -80 36 -30 72 -60 80 -67 81 -63 235 -233 300 -334 27 -41 67 -98 89 -126 22 -28 57 -85 78 -125 21 -41 59 -105 84 -144 25 -38 56 -92 69 -120 13 -27 43 -78 66 -112 23 -34 63 -101 89 -150 26 -48 53 -95 60 -103 7 -8 30 -46 50 -85 20 -38 57 -101 81 -140 25 -38 60 -100 79 -138 36 -72 75 -139 86 -147 3 -3 23 -36 44 -75 21 -38 48 -83 59 -100 24 -34 29 -43 86 -150 23 -44 58 -102 77 -129 19 -27 60 -97 90 -155 59 -115 75 -143 84 -151 4 -3 21 -32 39 -65 18 -33 42 -78 53 -100 12 -22 27 -44 33 -50 7 -5 34 -53 60 -105 52 -101 52 -100 87 -145 13 -16 48 -77 77 -135 30 -58 64 -118 77 -134 14 -16 40 -61 60 -100 20 -39 52 -96 73 -126 20 -30 54 -86 75 -125 20 -38 47 -84 60 -101 13 -16 43 -71 68 -121 25 -50 54 -100 66 -112 12 -12 41 -52 65 -89 51 -80 184 -208 250 -240 59 -30 171 -34 210 -8 14 9 30 16 37 16 14 0 89 58 109 85 8 11 39 47 68 80 69 77 64 71 108 151 20 38 40 71 44 74 4 3 10 12 13 20 4 8 16 29 27 45 10 17 32 55 47 85 14 30 48 87 73 125 26 39 59 95 75 125 15 30 40 73 55 95 15 22 46 76 70 120 23 44 64 112 91 152 140 207 142 285 10 482 -20 31 -53 88 -71 126 -19 39 -57 104 -85 145 -27 41 -61 98 -74 125 -14 28 -41 77 -62 111 -20 33 -53 90 -72 127 -54 99 -61 111 -73 122 -6 5 -20 26 -30 45 -11 19 -22 37 -25 40 -3 3 -16 27 -30 55 -13 27 -40 75 -61 105 -20 31 -54 90 -75 131 -52 99 -65 120 -85 144 -9 11 -40 65 -68 120 -29 55 -58 107 -65 115 -7 8 -28 42 -46 75 -44 81 -65 118 -126 223 -29 49 -53 93 -53 96 0 4 -18 31 -39 60 -21 29 -60 93 -86 142 -26 49 -66 118 -90 154 -23 36 -56 92 -74 125 -17 33 -47 78 -67 100 -19 22 -46 60 -61 85 -70 120 -258 328 -423 470 -75 65 -186 150 -194 150 -3 0 -45 23 -93 50 -49 28 -109 57 -136 65 -42 12 -84 29 -204 81 -17 8 -40 14 -50 14 -10 0 -23 4 -29 10 -22 22 -561 50 -594 31z"/>
<path d="M9271 8089 c-114 -8 -138 -13 -321 -74 -171 -57 -215 -77 -327 -143 -143 -85 -348 -242 -359 -274 -9 -28 10 -42 90 -67 204 -65 416 -217 550 -395 65 -87 149 -231 177 -306 21 -56 70 -236 91 -339 8 -41 13 -616 18 -2101 6 -2030 6 -2046 27 -2135 49 -212 120 -324 309 -490 88 -76 166 -121 314 -181 l95 -38 215 -4 c248 -4 273 0 454 80 147 65 188 93 272 185 145 160 211 258 237 353 48 169 47 139 47 2247 0 1708 -2 2001 -15 2134 -40 395 -139 667 -346 945 -79 106 -155 179 -297 286 -199 151 -288 193 -567 272 -192 54 -362 65 -664 45z"/>
<path d="M712 6684 c-28 -14 -74 -50 -101 -80 -50 -55 -59 -77 -82 -202 -6 -33 -8 -804 -6 -2055 3 -2146 0 -2023 47 -2197 5 -19 14 -54 20 -78 16 -63 141 -242 223 -317 112 -105 311 -225 417 -254 195 -52 499 -54 670 -4 74 21 245 102 311 147 72 48 171 146 234 231 96 130 101 140 156 335 29 103 32 189 36 865 5 904 12 849 -154 1153 -40 72 -73 134 -73 137 0 2 -25 46 -56 97 -31 51 -76 127 -99 168 -40 71 -157 271 -325 555 -42 72 -92 157 -110 190 -18 33 -44 80 -58 105 -14 25 -66 113 -117 195 -103 169 -216 360 -265 450 -78 141 -238 372 -304 439 -83 83 -206 146 -287 146 -14 0 -48 -12 -77 -26z"/>
<path d="M7910 6637 c-25 -12 -50 -26 -57 -32 -6 -5 -30 -23 -53 -40 -51 -37 -127 -124 -171 -195 -18 -30 -37 -56 -41 -58 -4 -2 -8 -8 -8 -12 0 -9 -69 -131 -79 -140 -3 -3 -17 -25 -30 -49 -13 -24 -41 -69 -61 -100 -21 -31 -54 -90 -75 -131 -20 -41 -47 -88 -59 -105 -12 -16 -30 -48 -41 -70 -11 -22 -30 -54 -42 -71 -13 -17 -23 -35 -23 -40 0 -6 -20 -41 -45 -78 -25 -38 -45 -71 -45 -74 0 -2 -35 -63 -78 -136 -44 -72 -96 -162 -118 -201 -21 -38 -44 -79 -51 -90 -7 -11 -15 -27 -20 -35 -4 -8 -20 -37 -36 -65 -38 -63 -67 -114 -81 -140 -6 -11 -21 -34 -33 -52 -13 -17 -23 -34 -23 -38 0 -4 -22 -44 -49 -89 -71 -117 -86 -145 -117 -206 -15 -30 -38 -69 -51 -86 -13 -17 -23 -34 -23 -38 0 -4 -11 -22 -24 -39 -13 -18 -38 -59 -56 -92 -67 -126 -75 -140 -86 -151 -5 -7 -25 -41 -44 -78 -19 -36 -38 -66 -42 -66 -4 0 -8 -5 -8 -11 0 -14 -71 -133 -82 -137 -4 -2 -8 -9 -8 -14 0 -6 -26 -54 -58 -107 -33 -53 -74 -125 -92 -161 -19 -36 -39 -72 -46 -80 -13 -16 -41 -67 -104 -187 -21 -40 -48 -86 -59 -102 -12 -16 -21 -32 -21 -36 0 -4 -13 -24 -30 -45 -16 -21 -30 -41 -30 -44 0 -6 -38 -64 -50 -76 -7 -7 -46 -63 -95 -135 -22 -33 -51 -73 -65 -90 -29 -36 -270 -276 -291 -290 -8 -5 -35 -24 -59 -41 -45 -31 -115 -72 -180 -105 -32 -16 -79 -31 -185 -60 -72 -20 -85 -28 -85 -51 0 -34 120 -143 312 -285 32 -24 60 -43 62 -43 2 0 31 -18 64 -40 33 -22 63 -40 67 -40 4 0 21 -6 38 -14 18 -8 66 -24 107 -37 41 -12 79 -26 84 -31 6 -4 17 -8 25 -8 9 0 28 -7 43 -14 16 -8 49 -18 75 -22 27 -3 53 -10 58 -14 9 -7 286 -33 355 -34 59 0 316 26 325 34 5 4 34 11 62 15 29 4 55 11 58 15 3 5 23 11 45 15 22 4 42 11 46 16 3 5 13 9 22 9 9 0 29 6 44 14 15 8 41 17 59 21 18 4 61 25 96 46 35 22 67 39 71 39 4 0 39 20 76 45 38 25 71 45 74 45 6 0 91 66 180 141 72 60 207 199 256 265 17 22 49 64 71 91 67 85 185 258 207 303 6 14 17 32 24 40 11 14 25 37 83 140 13 25 28 47 31 50 4 3 16 25 29 50 23 48 43 82 51 90 6 6 27 44 61 108 12 23 26 42 31 42 4 0 8 5 8 12 0 6 6 19 14 27 7 9 30 47 50 85 45 82 92 160 121 201 12 17 32 50 44 75 12 25 32 63 44 85 49 89 79 174 90 255 17 123 16 2314 -1 2463 -7 59 -16 115 -21 125 -42 86 -55 105 -117 169 -40 42 -43 43 -105 43 -46 0 -77 -7 -109 -23z"/>
<path d="M21400 4130 l0 -2510 270 0 270 0 0 251 c0 167 3 248 10 244 6 -4 34 -41 62 -83 67 -99 213 -245 307 -307 249 -163 577 -218 941 -158 319 52 599 206 802 439 241 278 383 628 434 1074 23 192 15 597 -14 765 -65 367 -204 661 -416 877 -137 140 -284 231 -467 292 -360 119 -784 91 -1107 -73 -181 -92 -383 -285 -502 -478 -17 -29 -36 -53 -41 -53 -5 0 -9 448 -9 1115 l0 1115 -270 0 -270 0 0 -2510z m1784 485 c171 -30 309 -100 438 -223 176 -168 282 -393 323 -682 18 -129 20 -433 4 -578 -58 -535 -294 -918 -652 -1062 -136 -54 -195 -64 -387 -65 -193 0 -269 14 -403 74 -253 114 -457 362 -535 650 -25 93 -26 107 -30 460 -4 396 3 499 44 651 76 287 262 537 495 669 77 43 206 89 297 105 104 19 300 19 406 1z"/>
<path d="M16083 5917 l-253 -82 0 -412 0 -413 -290 0 -290 0 0 -230 0 -230 290 0 290 0 0 -1073 c0 -675 4 -1104 10 -1157 33 -269 140 -491 293 -606 140 -105 285 -153 512 -170 165 -11 410 25 523 79 l47 22 3 228 c1 125 0 227 -3 227 -3 0 -22 -11 -43 -24 -103 -68 -319 -96 -466 -62 -180 42 -270 144 -318 359 -21 89 -21 122 -25 1135 l-4 1042 430 0 431 0 0 230 0 230 -427 2 -428 3 -3 493 c-2 384 -5 492 -15 491 -6 0 -126 -37 -264 -82z"/>
<path d="M13283 5080 c-338 -36 -620 -166 -869 -402 -276 -263 -447 -608 -511 -1034 -26 -178 -24 -559 5 -750 65 -419 207 -721 456 -962 203 -197 428 -308 734 -364 155 -28 484 -30 675 -4 146 20 326 62 437 102 95 34 258 115 333 166 l57 39 0 249 c0 138 -2 250 -4 250 -3 0 -39 -25 -82 -55 -289 -207 -617 -315 -962 -315 -223 0 -382 33 -547 115 -332 163 -531 506 -562 968 l-6 97 1198 0 1197 0 -5 283 c-3 192 -10 315 -22 386 -111 692 -478 1110 -1062 1211 -132 23 -345 32 -460 20z m392 -475 c33 -9 103 -37 155 -62 79 -38 107 -59 180 -132 47 -47 102 -115 123 -151 80 -139 130 -320 143 -518 l7 -102 -916 0 -917 0 0 28 c0 15 7 56 15 92 95 409 344 716 667 824 42 14 100 30 130 35 80 15 341 6 413 -14z"/>
<path d="M18984 5079 c-286 -22 -574 -104 -815 -231 -156 -83 -140 -40 -137 -356 l3 -273 60 47 c293 230 611 348 970 361 195 7 289 -8 412 -67 219 -106 331 -325 358 -702 6 -85 5 -87 -17 -92 -13 -3 -252 -37 -533 -76 -563 -78 -705 -103 -857 -156 -424 -147 -653 -412 -714 -824 -78 -532 172 -964 642 -1110 215 -66 517 -74 736 -20 277 69 499 230 670 487 34 51 65 90 70 87 4 -3 8 -124 8 -270 l0 -264 265 0 266 0 -4 1238 c-3 1355 0 1282 -63 1499 -154 532 -603 778 -1320 722z m856 -1911 c0 -295 -23 -450 -90 -611 -84 -202 -271 -397 -465 -482 -108 -48 -193 -66 -335 -72 -172 -7 -269 10 -390 69 -214 104 -324 301 -307 553 17 241 101 380 287 472 90 44 240 92 354 113 87 16 881 128 919 129 l27 1 0 -172z"/>
<path d="M26563 5080 c-338 -36 -620 -166 -869 -402 -276 -263 -447 -608 -511 -1034 -26 -178 -24 -559 5 -750 65 -419 207 -721 456 -962 203 -197 428 -308 734 -364 155 -28 484 -30 675 -4 146 20 326 62 437 102 95 34 258 115 333 166 l57 39 0 249 c0 138 -2 250 -4 250 -3 0 -39 -25 -82 -55 -289 -207 -617 -315 -962 -315 -223 0 -382 33 -547 115 -332 163 -531 506 -562 968 l-6 97 1198 0 1197 0 -5 283 c-3 192 -10 315 -22 386 -111 692 -478 1110 -1062 1211 -132 23 -345 32 -460 20z m392 -475 c33 -9 103 -37 155 -62 79 -38 107 -59 180 -132 47 -47 102 -115 123 -151 80 -139 130 -320 143 -518 l7 -102 -916 0 -917 0 0 28 c0 15 7 56 15 92 95 409 344 716 667 824 42 14 100 30 130 35 80 15 341 6 413 -14z"/>
<path d="M30280 5083 c-97 -6 -272 -33 -375 -59 -177 -45 -317 -106 -465 -201 -403 -261 -638 -664 -712 -1223 -16 -125 -16 -508 1 -630 56 -411 203 -723 461 -981 273 -273 582 -406 1024 -441 239 -18 529 14 739 83 435 142 779 470 952 908 53 134 101 335 121 503 20 177 15 504 -11 678 -138 924 -770 1420 -1735 1363z m336 -468 c190 -33 325 -91 457 -197 290 -231 431 -635 414 -1188 -10 -324 -68 -556 -191 -763 -154 -259 -394 -413 -715 -458 -133 -19 -373 -7 -496 25 -369 95 -645 374 -758 766 -49 169 -61 268 -60 505 0 179 4 242 21 336 100 549 415 894 891 974 108 18 331 18 437 0z"/>
</g>
</svg>